Coordinates
version=1
nRows=17
nColumns=36
inDegrees=yes

Units are S.I. units (second, meters, Newtons, ...)
If the header above contains a line with 'inDegrees', this indicates whether rotational values are in degrees (yes) or radians (no).

endheader
time	pelvis_tilt	pelvis_list	pelvis_rotation	pelvis_tx	pelvis_ty	pelvis_tz	hip_flexion_r	hip_adduction_r	hip_rotation_r	knee_angle_r	knee_angle_r_beta	ankle_angle_r	subtalar_angle_r	mtp_angle_r	hip_flexion_l	hip_adduction_l	hip_rotation_l	knee_angle_l	knee_angle_l_beta	ankle_angle_l	subtalar_angle_l	mtp_angle_l	lumbar_extension	lumbar_bending	lumbar_rotation	arm_flex_r	arm_add_r	arm_rot_r	elbow_flex_r	pro_sup_r	arm_flex_l	arm_add_l	arm_rot_l	elbow_flex_l	pro_sup_l
      2.90000000	    -14.17075860	      1.19308329	     -3.29964142	      0.53509444	      1.01543491	     -0.11566416	     11.80773129	     -6.61373496	      6.72029007	      5.47171350	      0.09549942	     -1.61557202	     -3.88693932	     -7.49999983	     10.66614336	     -1.87889413	     -1.94471140	      3.74812205	      0.06541707	     -2.69051127	    -10.37090774	     -7.49999983	    -10.23967432	     -2.68466226	      1.02217411	     -2.01814192	    -14.30690985	      6.98105251	     36.57800145	     69.89577136	     -5.77744555	    -18.96748704	     -0.74510215	     35.73227099	     58.76211571
      2.91666670	    -13.79444050	      1.11437074	     -3.15547482	      0.54181883	      1.01274920	     -0.11608849	     11.20980306	     -6.52013474	      6.36720066	      5.32300588	      0.09290398	     -1.72432279	     -3.42931364	     -7.49999983	     10.12848140	     -2.02814093	     -1.95611331	      3.55861158	      0.06210949	     -2.74731312	     -9.80039240	     -7.49999983	    -10.04085226	     -2.58112141	      0.89655684	     -2.53135588	    -13.92091688	      6.10014612	     36.53214660	     70.48750804	     -5.90707374	    -18.80389209	     -1.84776379	     35.98563289	     58.82184884
      2.93333330	    -13.48127824	      1.04979931	     -3.01733635	      0.54224122	      1.01541950	     -0.11619514	     10.67658052	     -6.47498078	      6.11377427	      5.18762093	      0.09054107	     -1.88504634	     -3.39000051	     -7.49999984	      9.60923188	     -2.14283008	     -1.82127354	      3.20883019	      0.05600465	     -2.83718195	     -9.38705045	     -7.49999984	     -9.77068314	     -2.44222429	      0.92907922	     -2.94875117	    -13.77687307	      5.66107932	     36.69898213	     69.61257831	     -5.88283385	    -18.55372615	     -2.41831099	     36.32593303	     58.94031410
      2.95000000	    -13.27853122	      1.02200577	     -2.79410401	      0.54141347	      1.01277248	     -0.11626323	     10.24887398	     -6.47409205	      5.75574069	      4.97335753	      0.08680146	     -2.08671046	     -3.32159509	     -7.49999984	      9.38772953	     -2.17753216	     -1.64799703	      3.19124491	      0.05569773	     -2.90655649	     -9.14231755	     -7.49999984	     -9.16248000	     -2.30641795	      0.81550545	     -3.56696080	    -13.69437812	      5.54067619	     36.83128660	     69.39907101	     -5.83417794	    -18.39407882	     -2.60158721	     36.83848676	     59.06869546
      2.96666670	    -13.00570086	      1.00878793	     -2.60159781	      0.54204699	      1.01612246	     -0.11688351	      9.89526030	     -6.50347529	      5.30535077	      5.05918772	      0.08829948	     -2.20768351	     -3.35187802	     -7.49999985	      9.00282048	     -2.17771095	     -1.50724755	      3.06389177	      0.05347500	     -2.97090460	     -8.73945622	     -7.49999985	     -8.71788823	     -2.15916335	      0.55194128	     -3.95480081	    -13.56156545	      5.21144739	     37.01904337	     68.91847115	     -5.63499374	    -18.09234918	     -2.66237630	     37.31279159	     59.29777207
      2.98333330	    -12.77347496	      1.02464350	     -2.45506617	      0.54107939	      1.01600741	     -0.11638844	      9.55392315	     -6.53181090	      5.02686344	      4.97752784	      0.08687425	     -2.41924236	     -3.51846735	     -7.49999985	      8.76064307	     -2.15582874	     -1.52895229	      3.06082635	      0.05342150	     -2.97432263	     -8.32235108	     -7.49999985	     -8.19113970	     -2.07946945	      0.31784137	     -4.35730906	    -13.45241675	      4.99370811	     37.28647634	     68.58255857	     -5.50527181	    -17.90031528	     -2.58084721	     37.66233898	     59.53370715
      3.00000000	    -12.58830292	      1.00360604	     -2.30594787	      0.54182476	      1.01357991	     -0.10778293	      9.33235843	     -6.32646794	      4.85308524	      4.99724719	      0.08721842	     -2.43468957	     -3.69164058	     -7.49999985	      8.61279831	     -2.30576608	     -1.45645787	      3.17795396	      0.05546576	     -2.92924589	     -7.91099195	     -7.49999985	     -7.67808670	     -2.19230886	      0.07609316	     -4.74139962	    -13.08603152	      4.82332299	     37.65809207	     68.43032100	     -5.36733477	    -18.21613258	     -2.55139995	     38.10539183	     59.82928570
      3.01666670	    -12.61115617	      0.97521730	     -2.12845144	      0.54111100	      1.01089101	     -0.11668310	      9.41188471	     -6.31499407	      4.40828638	      5.19068368	      0.09059452	     -2.33607697	     -3.50703559	     -7.49999985	      8.68938728	     -2.34986047	     -1.44941785	      3.23053230	      0.05638343	     -2.74016633	     -7.38746399	     -7.49999985	     -6.91707839	     -2.07964597	     -0.19756175	     -5.30427376	    -13.08830067	      4.48950380	     38.65702930	     67.96143263	     -5.53992832	    -18.02738856	     -2.67393108	     38.67546110	     60.01290019
      3.03333330	    -12.52622652	      0.93857863	     -2.09265632	      0.54535240	      1.01088932	     -0.11240558	      9.29010026	     -6.18230142	      4.68149301	      5.21829031	      0.09107635	     -2.42509576	     -4.15306351	     -7.49999985	      8.51167845	     -2.47482397	     -1.53628057	      3.23185307	      0.05640648	     -2.50817864	     -7.22328783	     -7.49999985	     -6.10669323	     -2.05533253	     -0.32337730	     -6.17412219	    -12.93949932	      3.97537841	     39.87241578	     68.81123608	     -5.77346087	    -17.91440591	     -2.84838744	     38.96822400	     60.62187321
      3.05000000	    -12.43163285	      0.86866568	     -2.00198039	      0.54477430	      1.01123070	     -0.11228357	      9.12917822	     -6.10646614	      4.39201855	      5.25241507	      0.09167194	     -2.25850028	     -4.10352343	     -7.49999986	      8.29058883	     -2.56557787	     -1.51740385	      3.08702988	      0.05387884	     -2.30211116	     -7.08670389	     -7.49999986	     -5.42868396	     -1.93881569	     -0.21003428	     -7.02064986	    -12.37129679	      1.62510510	     40.77642049	     73.99711870	     -5.72709579	    -17.59910296	     -3.38873647	     39.14045467	     64.49900339
      3.06666670	    -12.30340825	      0.77109936	     -1.93448677	      0.54161767	      1.00571543	     -0.10750105	      8.99600538	     -5.90886458	      4.54171879	      5.27918513	      0.09213916	     -1.91326055	     -4.42338707	     -7.49999986	      8.08849799	     -2.72675355	     -1.52427455	      2.98869134	      0.05216250	     -1.92421569	     -6.90117733	     -7.49999986	     -4.91535446	     -1.99253277	     -0.52110405	     -7.28781609	    -11.89721757	      1.65608050	     41.75424183	     72.54167949	     -5.92830873	    -17.54734183	     -3.69068938	     40.08533892	     63.98721604
      3.08333330	    -12.20460621	      0.66526553	     -1.83384297	      0.54457410	      1.00581987	     -0.11215197	      8.76204037	     -5.78489396	      4.59086527	      5.28497520	      0.09224022	     -1.50187569	     -4.51770015	     -7.49999986	      7.78481785	     -2.86679327	     -1.34540560	      2.75831616	      0.04814170	     -1.53340730	     -6.88660050	     -7.49999986	     -4.19940454	     -1.87056113	     -0.70771468	     -7.47243376	    -11.64250181	      1.81937162	     41.96038289	     72.63112367	     -5.87293538	    -17.15430240	     -3.51012449	     40.41461737	     64.06556157
      3.10000000	    -12.07605659	      0.48595909	     -1.88009662	      0.54152686	      1.00306249	     -0.10768428	      8.63279263	     -5.49929755	      4.87617978	      5.30159245	      0.09253024	     -0.77868049	     -4.62895194	     -7.49999986	      7.51184677	     -3.10311323	     -1.29738975	      2.58457287	      0.04510931	     -0.97419936	     -7.02116245	     -7.49999986	     -3.63680780	     -1.76512541	     -0.81855870	     -7.45107031	    -11.32023990	      2.03823976	     42.25864714	     72.73473521	     -5.73163129	    -16.94459484	     -3.30514264	     40.87881624	     64.16814294
      3.11666670	    -11.85859502	      0.32252278	     -2.02708796	      0.54052442	      0.99987918	     -0.10704420	      8.48687409	     -5.20757484	      5.17498721	      5.44808523	      0.09508703	      0.10830333	     -4.58522322	     -7.49999986	      7.04552295	     -3.34466850	     -1.25993580	      2.23747932	      0.03905138	     -0.25815888	     -6.64646133	     -7.49999986	     -3.37001047	     -1.63900008	     -0.82211018	     -7.34789776	    -11.18652061	      2.74649417	     43.02560283	     71.87926588	     -5.83515489	    -16.83263228	     -2.79666315	     42.24620997	     64.11303726
      3.13333330	    -11.85563876	      0.13393547	     -2.14383937	      0.54066955	      0.99610995	     -0.10700987	      8.50865321	     -4.90101287	      5.60004117	      5.45421458	      0.09519400	      0.94802919	     -4.76444754	     -7.49999986	      6.95724191	     -3.53285126	     -0.72855112	      2.00335260	      0.03496510	      0.21571002	     -7.42420020	     -7.49999986	     -2.62603414	     -1.43643983	     -0.87106916	     -7.03378512	    -10.79696402	      3.15956757	     42.91973104	     71.08705688	     -5.82162603	    -16.54736274	     -2.65752915	     42.68726499	     63.95843336
      3.15000000	    -11.21411925	     -0.02725343	     -2.28986088	      0.53948351	      0.99419668	     -0.10679118	      7.74843704	     -4.63742944	      5.89186033	      5.33247497	      0.09306925	      2.00880248	     -4.56202364	     -7.49999987	      6.14466270	     -3.68681929	     -0.67246153	      1.72619157	      0.03012773	      1.22857999	     -7.02466809	     -7.49999987	     -2.92447964	     -1.33599845	     -0.90006566	     -6.44483624	    -10.65342494	      4.53286372	     42.78517059	     69.68403867	     -5.56875382	    -16.52871278	     -2.18839631	     43.32471459	     63.85577542
      3.16666670	    -10.77759247	     -0.13601728	     -2.39674905	      0.53957897	      0.98846677	     -0.10677898	      7.10804243	     -4.42450005	      6.40074346	      5.07750453	      0.08861917	      2.95786859	     -4.84210933	     -7.49999987	      5.58847114	     -3.80211684	     -0.49987551	      1.58295177	      0.02762772	      2.03463164	     -7.08253978	     -7.49999987	     -2.91295039	     -1.30706674	     -0.89001346	     -5.96575639	    -10.09195326	      4.63046768	     42.39314625	     69.46269478	     -5.21385156	    -16.26058086	     -2.19521401	     43.48552345	     63.89755426
